<svg width="24" height="25" viewBox="0 0 24 25" fill="none" xmlns="http://www.w3.org/2000/svg">
<path d="M2.36416 13.458C1.98416 10.821 1.79416 9.502 2.33516 8.375C2.87516 7.248 4.02616 6.562 6.32716 5.192L7.71216 4.367C9.80016 3.122 10.8462 2.5 12.0002 2.5C13.1542 2.5 14.1992 3.122 16.2882 4.367L17.6732 5.192C19.9732 6.562 21.1242 7.248 21.6652 8.375C22.2052 9.502 22.0152 10.821 21.6352 13.458L21.3572 15.395C20.8702 18.783 20.6262 20.476 19.4512 21.488C18.2762 22.5 16.5532 22.5 13.1062 22.5H10.8942C7.44716 22.5 5.72416 22.5 4.54916 21.488C3.37416 20.476 3.13016 18.783 2.64316 15.395L2.36416 13.458Z" stroke="black" stroke-width="1.5"/>
<path d="M15 18.5H9" stroke="black" stroke-width="1.5" stroke-linecap="round"/>
</svg>
